<?xml version="1.0" encoding="utf-8"?>
<!-- Generator: Adobe Illustrator 27.5.0, SVG Export Plug-In . SVG Version: 6.00 Build 0)  -->
<svg version="1.1" xmlns="http://www.w3.org/2000/svg" xmlns:xlink="http://www.w3.org/1999/xlink" x="0px" y="0px"
	 viewBox="0 0 500 500" style="enable-background:new 0 0 500 500;" xml:space="preserve">
<g id="Background_Complete">
	<g>
		<rect y="382.398" style="fill:#EBEBEB;" width="500" height="0.25"/>
		<rect x="52.459" y="391.922" style="fill:#EBEBEB;" width="21.208" height="0.25"/>
		<rect x="171.14" y="389.208" style="fill:#EBEBEB;" width="84.971" height="0.25"/>
		<rect x="67.667" y="401.208" style="fill:#EBEBEB;" width="38.108" height="0.25"/>
		<rect x="406.708" y="399.528" style="fill:#EBEBEB;" width="43.193" height="0.25"/>
		<rect x="391.471" y="399.528" style="fill:#EBEBEB;" width="11.973" height="0.25"/>
		<rect x="347.889" y="395.306" style="fill:#EBEBEB;" width="23" height="0.25"/>
		<rect x="287.889" y="395.306" style="fill:#EBEBEB;" width="48.444" height="0.25"/>
		<path style="fill:#EBEBEB;" d="M237.014,337.8H43.915c-3.147,0-5.708-2.561-5.708-5.708V60.66c0-3.147,2.561-5.708,5.708-5.708
			h193.099c3.146,0,5.707,2.561,5.707,5.708v271.432C242.721,335.239,240.16,337.8,237.014,337.8z M43.915,55.203
			c-3.01,0-5.458,2.448-5.458,5.458v271.432c0,3.01,2.448,5.458,5.458,5.458h193.099c3.009,0,5.457-2.448,5.457-5.458V60.66
			c0-3.009-2.448-5.458-5.457-5.458H43.915z"/>
		<path style="fill:#EBEBEB;" d="M453.31,337.8H260.212c-3.147,0-5.707-2.561-5.707-5.708V60.66c0-3.147,2.561-5.708,5.707-5.708
			H453.31c3.148,0,5.708,2.561,5.708,5.708v271.432C459.019,335.239,456.458,337.8,453.31,337.8z M260.212,55.203
			c-3.009,0-5.457,2.448-5.457,5.458v271.432c0,3.01,2.448,5.458,5.457,5.458H453.31c3.01,0,5.458-2.448,5.458-5.458V60.66
			c0-3.009-2.448-5.458-5.458-5.458H260.212z"/>
	</g>
	<g>
		<g>
			<g>
				
					<rect x="75.029" y="263.88" transform="matrix(-1 -1.224647e-16 1.224647e-16 -1 165.4564 646.2783)" style="fill:#F0F0F0;" width="15.398" height="118.519"/>
				<rect x="90.427" y="263.88" style="fill:#F5F5F5;" width="134.786" height="118.519"/>
				<rect x="108.103" y="308.605" style="fill:#FAFAFA;" width="118.341" height="63.389"/>
				<rect x="108.103" y="281.01" style="fill:#FAFAFA;" width="118.341" height="20.869"/>
				
					<rect x="107.047" y="308.604" transform="matrix(-1 -1.224647e-16 1.224647e-16 -1 215.1491 680.5979)" style="opacity:0.7;fill:#E6E6E6;" width="1.056" height="63.389"/>
				
					<rect x="107.047" y="281.009" transform="matrix(-1 -1.224647e-16 1.224647e-16 -1 215.1491 582.8874)" style="opacity:0.7;fill:#E6E6E6;" width="1.056" height="20.869"/>
				
					<rect x="75.029" y="268.881" transform="matrix(-1 -1.224647e-16 1.224647e-16 -1 300.5832 540.4409)" style="opacity:0.7;fill:#E6E6E6;" width="150.525" height="2.68"/>
			</g>
			<g>
				
					<rect x="73.23" y="262.258" transform="matrix(-1 -1.224647e-16 1.224647e-16 -1 163.6575 532.267)" style="fill:#F0F0F0;" width="17.197" height="7.751"/>
				<rect x="90.427" y="262.258" style="fill:#F5F5F5;" width="136.585" height="7.751"/>
			</g>
		</g>
		<g>
			<g>
				<path style="fill:#E6E6E6;" d="M130.849,239.503c-0.891-1.166-1.309-2.675-1.453-4.165c-0.126-1.499,0.002-3.044,0.39-4.502
					c0.763-2.928,2.239-5.63,4.105-7.902c0.915-1.157,1.956-2.19,2.993-3.215c0.554-0.471,1.1-0.949,1.664-1.405
					c0.561-0.459,1.108-0.934,1.719-1.32c1.208-0.79,2.386-1.617,3.665-2.276c1.296-0.634,2.579-1.273,3.933-1.774
					c-0.944,1.118-1.959,2.1-2.96,3.086c-1.006,0.978-1.945,2.011-2.946,2.958c-0.987,0.963-1.876,2.003-2.843,2.96
					c-0.463,0.496-0.885,1.021-1.329,1.528c-0.437,0.51-0.926,0.985-1.3,1.535c-1.703,2.068-3.136,4.281-4.231,6.654
					c-0.563,1.187-0.951,2.436-1.237,3.738C130.725,236.714,130.65,238.073,130.849,239.503z"/>
				<path style="fill:#E6E6E6;" d="M107.477,235.313c0.437-1.266,0.668-2.507,0.653-3.712c0.04-0.596-0.085-1.184-0.133-1.75
					c-0.161-0.561-0.236-1.118-0.465-1.641c-0.808-2.109-2.259-3.921-3.989-5.566c-0.422-0.419-0.922-0.779-1.376-1.176
					c-0.46-0.396-0.898-0.814-1.422-1.153c-1.024-0.695-1.953-1.528-3.042-2.18c-0.528-0.346-1.053-0.703-1.577-1.07
					c-0.519-0.374-1.044-0.748-1.598-1.078c-1.08-0.714-2.173-1.421-3.227-2.278c1.325,0.168,2.611,0.484,3.909,0.794
					c0.652,0.148,1.279,0.364,1.898,0.609c0.623,0.235,1.244,0.48,1.862,0.736l0.927,0.388c0.302,0.145,0.591,0.321,0.888,0.48
					c0.594,0.322,1.174,0.67,1.761,1.009c0.599,0.316,1.126,0.769,1.677,1.181c0.533,0.439,1.094,0.834,1.599,1.317
					c2.012,1.904,3.736,4.433,4.238,7.361c0.1,0.351,0.089,0.729,0.104,1.096c0.006,0.368,0.035,0.731,0.006,1.094
					c-0.106,0.727-0.18,1.443-0.444,2.114C109.262,233.229,108.525,234.457,107.477,235.313z"/>
				<path style="fill:#E6E6E6;" d="M108.547,235.313c0.551-2.801,0.595-5.496,0.189-8.058c-0.392-2.561-1.288-4.951-2.53-7.184
					l-0.995-1.65c-0.369-0.531-0.786-1.033-1.166-1.563l-0.576-0.795l-0.667-0.733c-0.445-0.49-0.881-0.993-1.316-1.505
					c-0.941-0.953-1.925-1.889-2.884-2.89c-1.027-0.917-2.073-1.835-3.066-2.9c1.362,0.422,2.673,0.991,4.001,1.56
					c1.249,0.692,2.495,1.437,3.684,2.271c0.563,0.46,1.125,0.929,1.677,1.411l0.829,0.725l0.737,0.83
					c0.486,0.56,0.976,1.118,1.437,1.703l1.202,1.904c1.467,2.623,2.315,5.66,2.234,8.667
					C111.266,230.096,110.369,233.066,108.547,235.313z"/>
				<path style="fill:#E6E6E6;" d="M129.573,236.79c-2.062-2.467-3.643-5.25-5.033-8.114c-1.363-2.879-2.465-5.887-3.289-8.983
					c-0.791-3.105-1.278-6.304-1.385-9.525c-0.019-3.225,0.344-6.489,1.453-9.502c0.276,3.204,0.628,6.229,1.15,9.247
					c0.576,3.009,1.251,5.975,2.001,8.943c0.785,2.96,1.628,5.914,2.503,8.885C127.839,230.72,128.748,233.697,129.573,236.79z"/>
				<path style="fill:#E6E6E6;" d="M128.534,236.294c-2.439-2.261-4.467-4.871-6.337-7.578c-1.844-2.726-3.482-5.596-4.87-8.596
					c-1.366-3.009-2.502-6.14-3.27-9.377c-0.708-3.248-1.102-6.609-0.716-9.911c1.005,3.17,2.045,6.166,3.213,9.134
					c1.191,2.957,2.481,5.859,3.794,8.764c1.336,2.896,2.723,5.778,4.108,8.686C125.835,230.33,127.236,233.244,128.534,236.294z"/>
				<path style="fill:#E6E6E6;" d="M132.602,240.1c-2.882-1.66-5.442-3.751-7.869-5.971c-2.406-2.245-4.644-4.677-6.667-7.291
					c-2.004-2.628-3.811-5.426-5.282-8.41c-1.415-3.008-2.55-6.196-2.911-9.501c1.688,2.865,3.371,5.553,5.172,8.185
					c1.822,2.616,3.727,5.157,5.655,7.696c1.949,2.525,3.945,5.025,5.944,7.549C128.639,234.889,130.655,237.417,132.602,240.1z"/>
				<path style="fill:#E6E6E6;" d="M126.484,235.744c-2.779-1.319-5.247-3.141-7.561-5.121c-2.296-2.004-4.392-4.245-6.262-6.673
					c-1.874-2.425-3.444-5.1-4.71-7.903c-1.228-2.822-2.051-5.847-2.238-8.902c1.531,2.672,2.926,5.223,4.543,7.665
					c1.621,2.43,3.271,4.811,5.05,7.122c1.776,2.311,3.604,4.592,5.482,6.868C122.66,231.088,124.578,233.348,126.484,235.744z"/>
				<path style="fill:#E6E6E6;" d="M131.371,238.529c-2.251-1.443-3.669-4.098-4.12-6.866c-0.439-2.804,0.158-5.691,1.303-8.164
					l0.417-0.943l0.511-0.879l1.071-1.724c0.409-0.531,0.829-1.049,1.26-1.559c0.438-0.5,0.83-1.045,1.329-1.481
					c0.978-0.891,1.92-1.811,2.985-2.576c1.095-0.734,2.175-1.468,3.341-2.074c-0.672,1.157-1.43,2.187-2.173,3.216
					c-0.738,1.031-1.397,2.101-2.131,3.094c-0.686,1.027-1.294,2.085-1.961,3.093l-0.837,1.586l-0.434,0.78l-0.336,0.812
					c-0.987,2.13-1.653,4.352-1.743,6.652C129.785,233.785,130.19,236.181,131.371,238.529z"/>
				<path style="fill:#E6E6E6;" d="M129.516,235.336c-2.02-1.89-3.417-4.401-4.236-7.119c-0.806-2.724-0.908-5.761-0.123-8.607
					c0.386-1.42,0.974-2.788,1.756-4.018c0.767-1.238,1.687-2.365,2.737-3.323c2.084-1.935,4.533-3.347,7.173-4.12
					c-1.927,1.96-3.745,3.835-5.224,5.865c-0.748,1.006-1.401,2.049-1.939,3.132c-0.557,1.072-0.99,2.191-1.294,3.341
					c-0.632,2.294-0.784,4.728-0.529,7.22C128.09,230.201,128.676,232.732,129.516,235.336z"/>
				<polygon style="fill:#E6E6E6;" points="124.627,232.969 108.983,217.949 109.612,232.678 				"/>
			</g>
			<g>
				<polygon style="fill:#F5F5F5;" points="141.73,231.374 100.158,231.374 105.602,262.258 136.286,262.258 				"/>
				<polygon style="fill:#EBEBEB;" points="115.759,231.374 100.158,231.374 105.602,262.258 113.796,262.258 				"/>
			</g>
		</g>
		<g>
			<rect x="100.941" y="76.826" style="fill:#F0F0F0;" width="83.914" height="105.481"/>
			<rect x="104.156" y="76.826" style="fill:#F5F5F5;" width="99.223" height="105.481"/>
			
				<rect x="109.34" y="88.268" transform="matrix(6.123234e-17 -1 1 6.123234e-17 24.2013 283.3347)" style="fill:#FFFFFF;" width="88.856" height="82.598"/>
		</g>
		<g>
			<g>
				<polygon style="fill:#EBEBEB;" points="435.439,382.398 307.789,382.398 296.46,171.346 424.11,171.346 				"/>
				<polygon style="fill:#F5F5F5;" points="439.339,382.398 311.689,382.398 300.36,171.346 428.01,171.346 				"/>
			</g>
			<g>
				<polygon style="fill:#FFFFFF;" points="375.316,360.627 363.918,360.627 364.383,193.117 375.781,193.117 				"/>
				<polygon style="fill:#FFFFFF;" points="405.469,360.627 394.072,360.627 394.537,193.117 405.934,193.117 				"/>
				<polygon style="fill:#FFFFFF;" points="345.162,360.627 333.765,360.627 334.23,193.117 345.627,193.117 				"/>
			</g>
		</g>
	</g>
</g>
<g id="Background_Simple" style="display:none;">
	<g style="display:inline;">
		<path style="fill:#407BFF;" d="M278.342,247.604c-61.729-0.891-144.058,92.392-195.91,28.587
			c-61.735-75.966,77.015-112.994,108.644-167.447c44.62-76.818,154.503-21.478,201.768,68.197
			c17.614,33.419,1.786,89.965-38.68,94.575C309.987,276.549,313.711,248.114,278.342,247.604z"/>
		<path style="opacity:0.9;fill:#FFFFFF;" d="M278.342,247.604c-61.729-0.891-144.058,92.392-195.91,28.587
			c-61.735-75.966,77.015-112.994,108.644-167.447c44.62-76.818,154.503-21.478,201.768,68.197
			c17.614,33.419,1.786,89.965-38.68,94.575C309.987,276.549,313.711,248.114,278.342,247.604z"/>
	</g>
</g>
<g id="Shadow_1_">
	<ellipse id="_x3C_Path_x3E__314_" style="fill:#F5F5F5;" cx="250" cy="416.238" rx="193.889" ry="11.323"/>
</g>
<g id="Sliders">
	<g>
		<g>
			
				<rect x="374.824" y="305.374" transform="matrix(0.0547 -0.9985 0.9985 0.0547 60.0435 675.1712)" style="fill:#407BFF;" width="23.581" height="1"/>
			
				<rect x="381.949" y="279.7" transform="matrix(0.0547 -0.9985 0.9985 0.0547 87.0099 652.3084)" style="fill:#407BFF;" width="12.148" height="1"/>
			<path style="fill:#407BFF;" d="M366.801,362.519H249.579c-7.536,0-13.363-6.166-12.95-13.701l13.502-246.117
				C250.545,95.166,257.049,89,264.584,89h117.222c7.536,0,13.363,6.166,12.95,13.701l-13.502,246.117
				C380.841,356.353,374.337,362.519,366.801,362.519z"/>
			<path style="opacity:0.8;fill:#FFFFFF;" d="M359.715,362.519H249.579c-7.536,0-13.363-6.166-12.95-13.701l13.502-246.117
				C250.545,95.166,257.049,89,264.584,89H374.72c7.536,0,13.363,6.166,12.95,13.701l-13.502,246.117
				C373.754,356.353,367.25,362.519,359.715,362.519z"/>
		</g>
		<path style="fill:#FFFFFF;" d="M305.131,133.617h-31.627c-3.182,0-5.643-2.603-5.468-5.785l0,0
			c0.175-3.182,2.921-5.785,6.103-5.785h31.627c3.182,0,5.642,2.604,5.468,5.785l0,0
			C311.059,131.013,308.313,133.617,305.131,133.617z"/>
		<path style="fill:#407BFF;" d="M311.233,127.831c-0.316,5.751-5.234,10.414-10.985,10.414c-5.751,0-10.158-4.662-9.842-10.414
			c0.315-5.751,5.234-10.414,10.985-10.414C307.142,117.418,311.549,122.08,311.233,127.831z"/>
		<path style="fill:#FFFFFF;" d="M303.1,170.626h-31.626c-3.182,0-5.643-2.603-5.468-5.785l0,0c0.175-3.182,2.921-5.785,6.103-5.785
			h31.627c3.182,0,5.643,2.603,5.468,5.785l0,0C309.028,168.023,306.282,170.626,303.1,170.626z"/>
		<g>
			
				<ellipse transform="matrix(0.7167 -0.6973 0.6973 0.7167 -34.2721 245.3106)" style="fill:#407BFF;" cx="284.819" cy="164.841" rx="10.703" ry="10.132"/>
			
				<ellipse transform="matrix(0.7167 -0.6973 0.6973 0.7167 -34.2721 245.3106)" style="opacity:0.3;fill:#FAFAFA;" cx="284.819" cy="164.841" rx="10.703" ry="10.132"/>
		</g>
		<path style="fill:#FFFFFF;" d="M267.413,244.646h31.626c3.182,0,5.928-2.603,6.103-5.785l0,0c0.174-3.182-2.286-5.785-5.468-5.785
			h-31.626c-3.182,0-5.928,2.603-6.103,5.785l0,0C261.77,242.043,264.231,244.646,267.413,244.646z"/>
		<g>
			
				<ellipse transform="matrix(0.7168 -0.6973 0.6973 0.7168 -89.4198 257.5731)" style="fill:#407BFF;" cx="272.359" cy="238.861" rx="10.703" ry="10.132"/>
			
				<ellipse transform="matrix(0.7168 -0.6973 0.6973 0.7168 -89.4198 257.5731)" style="opacity:0.7;fill:#FAFAFA;" cx="272.359" cy="238.861" rx="10.703" ry="10.132"/>
		</g>
		<path style="fill:#FFFFFF;" d="M297.009,281.656h-31.627c-3.182,0-5.643-2.603-5.468-5.785l0,0
			c0.175-3.182,2.921-5.785,6.103-5.785h31.626c3.182,0,5.642,2.603,5.468,5.785l0,0
			C302.937,279.053,300.191,281.656,297.009,281.656z"/>
		<path style="fill:#407BFF;" d="M303.112,275.871c-0.315,5.751-5.234,10.414-10.985,10.414c-5.751,0-10.158-4.662-9.842-10.414
			c0.316-5.751,5.234-10.414,10.985-10.414C299.021,265.457,303.427,270.12,303.112,275.871z"/>
		<path style="fill:#FFFFFF;" d="M269.443,207.636h31.626c3.182,0,5.928-2.603,6.103-5.785l0,0c0.174-3.182-2.286-5.785-5.468-5.785
			h-31.627c-3.182,0-5.928,2.603-6.103,5.785l0,0C263.801,205.033,266.261,207.636,269.443,207.636z"/>
		<g>
			<path style="fill:#407BFF;" d="M263.975,201.851c-0.316,5.751,4.091,10.414,9.842,10.414c5.751,0,10.669-4.662,10.985-10.414
				c0.315-5.751-4.091-10.414-9.842-10.414C269.209,191.437,264.291,196.1,263.975,201.851z"/>
			<path style="opacity:0.7;fill:#FAFAFA;" d="M263.975,201.851c-0.316,5.751,4.091,10.414,9.842,10.414
				c5.751,0,10.669-4.662,10.985-10.414c0.315-5.751-4.091-10.414-9.842-10.414C269.209,191.437,264.291,196.1,263.975,201.851z"/>
		</g>
		<path style="fill:#FFFFFF;" d="M374.413,126.096h-46.879c-1.273,0-2.257-1.041-2.187-2.314l0,0
			c0.07-1.273,1.168-2.314,2.441-2.314h46.879c1.273,0,2.257,1.041,2.187,2.314l0,0
			C376.784,125.054,375.686,126.096,374.413,126.096z"/>
		<path style="fill:#FFFFFF;" d="M358.795,134.195H327.09c-1.273,0-2.257-1.041-2.187-2.314l0,0c0.07-1.273,1.168-2.314,2.441-2.314
			h31.705c1.273,0,2.257,1.041,2.187,2.314l0,0C361.166,133.154,360.068,134.195,358.795,134.195z"/>
		<path style="fill:#FFFFFF;" d="M360.368,274.135h-40.955c-1.273,0-2.257-1.041-2.187-2.314l0,0
			c0.07-1.273,1.168-2.314,2.441-2.314h40.955c1.273,0,2.257,1.041,2.187,2.314l0,0C362.739,273.094,361.64,274.135,360.368,274.135
			z"/>
		<path style="fill:#FFFFFF;" d="M339.206,282.235h-20.237c-1.273,0-2.257-1.041-2.187-2.314l0,0
			c0.07-1.273,1.168-2.314,2.441-2.314h20.237c1.273,0,2.257,1.041,2.187,2.314l0,0
			C341.577,281.193,340.478,282.235,339.206,282.235z"/>
		<path style="fill:#FFFFFF;" d="M372.192,166.577h-46.879c-1.273,0-2.371,1.041-2.441,2.314l0,0
			c-0.07,1.273,0.914,2.314,2.187,2.314h46.879c1.273,0,2.371-1.041,2.441-2.314l0,0
			C374.449,167.618,373.465,166.577,372.192,166.577z"/>
		<path style="fill:#FFFFFF;" d="M357.463,158.477h-31.705c-1.273,0-2.371,1.041-2.441,2.314l0,0
			c-0.07,1.273,0.914,2.314,2.187,2.314h31.705c1.273,0,2.371-1.041,2.441-2.314l0,0
			C359.72,159.519,358.736,158.477,357.463,158.477z"/>
		<path style="fill:#FFFFFF;" d="M347.517,200.115h-24.043c-1.273,0-2.257-1.041-2.187-2.314l0,0
			c0.07-1.273,1.168-2.314,2.441-2.314h24.043c1.273,0,2.257,1.041,2.187,2.314l0,0
			C349.888,199.074,348.789,200.115,347.517,200.115z"/>
		<path style="fill:#FFFFFF;" d="M370.352,200.115H356.19c-1.273,0-2.257-1.041-2.187-2.314l0,0c0.07-1.273,1.168-2.314,2.441-2.314
			h14.162c1.273,0,2.257,1.041,2.187,2.314l0,0C372.723,199.074,371.625,200.115,370.352,200.115z"/>
		<path style="fill:#FFFFFF;" d="M354.734,208.215h-31.705c-1.273,0-2.257-1.041-2.187-2.314v0c0.07-1.273,1.168-2.314,2.441-2.314
			h31.705c1.273,0,2.257,1.041,2.187,2.314v0C357.105,207.173,356.007,208.215,354.734,208.215z"/>
		<path style="fill:#FFFFFF;" d="M314.997,314.695h-53.976c-1.78,0-3.157-1.457-3.06-3.237l0,0c0.098-1.78,1.634-3.237,3.415-3.237
			h53.976c1.78,0,3.157,1.457,3.059,3.237l0,0C318.314,313.239,316.778,314.695,314.997,314.695z"/>
		<path style="fill:#FFFFFF;" d="M363.143,314.695h-33.142c-1.78,0-3.157-1.457-3.06-3.237l0,0c0.098-1.78,1.634-3.237,3.415-3.237
			h33.142c1.78,0,3.157,1.457,3.059,3.237l0,0C366.46,313.239,364.924,314.695,363.143,314.695z"/>
		<path style="fill:#FFFFFF;" d="M301.495,326.026H260.4c-1.78,0-3.157-1.457-3.059-3.237l0,0c0.098-1.78,1.634-3.237,3.415-3.237
			h41.095c1.78,0,3.157,1.457,3.06,3.237l0,0C304.812,324.569,303.276,326.026,301.495,326.026z"/>
		<path style="fill:#FFFFFF;" d="M346.127,337.355h-86.348c-1.78,0-3.157-1.457-3.06-3.237l0,0c0.098-1.781,1.634-3.237,3.415-3.237
			h86.348c1.78,0,3.157,1.457,3.06,3.237l0,0C349.444,335.899,347.907,337.355,346.127,337.355z"/>
		<path style="fill:#FFFFFF;" d="M335.13,240.596h-13.877c-1.273,0-2.371,1.041-2.441,2.314l0,0
			c-0.07,1.273,0.914,2.314,2.187,2.314h13.877c1.273,0,2.371-1.041,2.441-2.314l0,0
			C337.387,241.638,336.403,240.596,335.13,240.596z"/>
		<path style="fill:#FFFFFF;" d="M359.893,240.596h-16.089c-1.273,0-2.371,1.041-2.441,2.314l0,0
			c-0.07,1.273,0.914,2.314,2.187,2.314h16.09c1.273,0,2.371-1.041,2.441-2.314l0,0C362.15,241.638,361.166,240.596,359.893,240.596
			z"/>
		<path style="fill:#FFFFFF;" d="M353.402,232.497h-31.705c-1.273,0-2.371,1.041-2.441,2.314l0,0
			c-0.07,1.273,0.914,2.314,2.187,2.314h31.705c1.273,0,2.371-1.041,2.441-2.314l0,0
			C355.659,233.538,354.675,232.497,353.402,232.497z"/>
	</g>
</g>
<g id="Character_1_">
	<g>
		<g>
			<path style="fill:#B55B52;" d="M177.966,173.127c-3.268,2.717-6.644,5.661-9.754,8.625c-1.56,1.492-3.085,3.008-4.488,4.556
				c-1.386,1.549-2.746,3.135-3.742,4.691l-0.188,0.276l-0.095,0.16c-0.071,0.084-0.135,0.268-0.209,0.405
				c-0.143,0.313-0.274,0.696-0.406,1.107c-0.258,0.831-0.46,1.787-0.62,2.777c-0.307,1.991-0.512,4.132-0.605,6.294
				c-0.21,4.325-0.207,8.829-0.128,13.242l-4.676,0.702c-1.169-4.548-1.984-9.073-2.404-13.795
				c-0.184-2.359-0.318-4.752-0.167-7.264c0.075-1.259,0.2-2.546,0.467-3.916c0.135-0.688,0.319-1.394,0.571-2.14
				c0.145-0.385,0.254-0.742,0.457-1.154l0.285-0.599c0.094-0.186,0.165-0.298,0.249-0.451c1.268-2.368,2.736-4.342,4.262-6.249
				c1.516-1.911,3.125-3.664,4.774-5.361c3.317-3.407,6.739-6.455,10.519-9.412L177.966,173.127z"/>
			<path style="fill:#407BFF;" d="M176.255,161.136c-5.122,3.037-12.87,10.8-12.87,10.8l9.499,11.394
				c0,0,13.469-8.075,15.104-12.532C190.734,163.309,181.093,158.268,176.255,161.136z"/>
			<path style="fill:#B55B52;" d="M157.544,213.566l1.155,6.776l-6.287-0.91c0,0-1.288-4.601,1.964-6.187L157.544,213.566z"/>
			<polygon style="fill:#B55B52;" points="156.384,224.462 150.72,222.702 152.412,219.433 158.699,220.342 			"/>
			<path style="fill:#263238;" d="M214.318,137.224c0.009,0.688,0.386,1.251,0.84,1.257s0.816-0.546,0.806-1.234
				c-0.01-0.688-0.386-1.251-0.84-1.257C214.67,135.983,214.309,136.536,214.318,137.224z"/>
			<path style="fill:#263238;" d="M214.924,136.025l1.664-0.453C216.588,135.571,215.749,136.85,214.924,136.025z"/>
			<path style="fill:#A02724;" d="M214.913,137.901c0,0,1.221,2.979,2.54,4.426c-0.906,0.835-2.473,0.426-2.473,0.426
				L214.913,137.901z"/>
			<path style="fill:#263238;" d="M215.191,132.647c-0.064,0.012-0.131,0.008-0.197-0.014c-1.732-0.565-2.924,0.309-2.974,0.346
				c-0.179,0.135-0.433,0.1-0.568-0.078c-0.135-0.178-0.102-0.431,0.075-0.568c0.063-0.048,1.567-1.174,3.719-0.473
				c0.213,0.07,0.33,0.299,0.26,0.512C215.457,132.521,215.333,132.622,215.191,132.647z"/>
			<path style="fill:#B55B52;" d="M193.945,144.561c0.46,5.168-1.27,13.64-5.175,16.523c0,0,2.942,5.439,12.365,6.704
				c10.362,1.391,5.494-4.442,5.494-4.442c-5.513-2.1-4.925-6.245-3.524-10.025L193.945,144.561z"/>
			<path style="fill:#B55B52;" d="M212.349,167.366c4.934,1.349,10.11,2.637,15.195,3.78c2.558,0.558,5.121,1.059,7.68,1.554
				c2.561,0.447,5.125,0.901,7.68,1.228l0.96,0.131l0.653,0.066c0.464,0.019,0.97,0.015,1.508-0.019
				c1.08-0.059,2.259-0.233,3.452-0.469c2.389-0.481,4.87-1.143,7.332-1.923c4.931-1.545,9.936-3.401,14.818-5.323l2.222,4.173
				c-4.634,3.014-9.387,5.645-14.471,7.928c-2.553,1.11-5.159,2.171-7.976,2.975c-1.408,0.407-2.863,0.766-4.448,1
				c-0.795,0.109-1.626,0.184-2.504,0.209c-0.441,0.001-0.94-0.013-1.354-0.031l-1.04-0.073c-5.558-0.364-11.018-1.142-16.405-2.18
				c-5.413-1.032-10.669-2.254-16.035-3.883L212.349,167.366z"/>
			<path style="fill:#B55B52;" d="M270.37,168.102l1.448-4.915l5.328,2.005c0,0-1.221,7.38-5.789,5.342L270.37,168.102z"/>
			<polygon style="fill:#B55B52;" points="274.906,159.93 280.35,160.543 277.146,165.192 271.818,163.187 			"/>
			<polygon style="fill:#B55B52;" points="178.642,406.874 187.214,407.505 189.759,387.822 181.188,387.19 			"/>
			<polygon style="fill:#B55B52;" points="115.444,368.722 121.262,375.178 137.518,363.942 131.7,357.486 			"/>
			<path style="fill:#407BFF;" d="M125.571,378.838c-0.103-0.002-0.206-0.019-0.308-0.052c-1.04-0.336-1.751-2.263-2.082-3.382
				c-0.023-0.079,0.003-0.163,0.066-0.215c0.064-0.052,0.152-0.06,0.224-0.022c0.314,0.167,3.068,1.663,3.16,2.761
				c0.021,0.244-0.08,0.46-0.291,0.623C126.087,378.746,125.829,378.842,125.571,378.838z M123.723,375.772
				c0.494,1.476,1.103,2.445,1.664,2.626c0.23,0.074,0.461,0.02,0.703-0.169c0.131-0.102,0.141-0.196,0.136-0.267
				C126.178,377.383,124.808,376.404,123.723,375.772z"/>
			<path style="fill:#407BFF;" d="M125.898,376.165c-0.958-0.016-2.115-0.328-2.629-0.646c-0.061-0.038-0.098-0.105-0.096-0.177
				c0.001-0.072,0.04-0.137,0.103-0.173c0.089-0.05,2.202-1.224,3.372-0.819c0.321,0.11,0.55,0.323,0.679,0.632
				c0.201,0.482-0.01,0.76-0.155,0.883C126.907,376.091,126.433,376.174,125.898,376.165z M123.819,375.344
				c0.96,0.405,2.639,0.596,3.089,0.212c0.075-0.064,0.147-0.168,0.043-0.417c-0.083-0.2-0.226-0.332-0.435-0.404
				C125.814,374.492,124.542,374.991,123.819,375.344z"/>
			<path style="fill:#263238;" d="M123.87,374.231l-4.803-8.518c-0.175-0.31-0.526-0.444-0.844-0.322l-7.089,2.72
				c-0.735,0.282-1.038,1.246-0.623,1.954c1.724,2.942,2.7,4.277,4.812,8.023c1.299,2.305,3.301,7.327,4.839,10.641
				c1.504,3.241,4.801,2.014,4.448,0.5c-1.579-6.787-0.982-10.553-0.479-13.476C124.223,375.227,124.126,374.684,123.87,374.231z"/>
			<path style="fill:#407BFF;" d="M190.935,407.784c-0.945,0-1.967-0.162-2.693-0.307c-0.085-0.017-0.149-0.086-0.161-0.171
				c-0.013-0.086,0.031-0.169,0.107-0.209c0.394-0.202,3.87-1.952,4.897-1.367c0.2,0.113,0.313,0.3,0.329,0.541
				c0.026,0.405-0.106,0.737-0.393,0.987C192.574,407.653,191.787,407.784,190.935,407.784z M188.923,407.189
				c1.891,0.314,3.301,0.231,3.833-0.236c0.189-0.165,0.271-0.379,0.254-0.655c-0.007-0.105-0.043-0.169-0.122-0.214
				C192.321,405.766,190.348,406.513,188.923,407.189z"/>
			<path style="fill:#407BFF;" d="M188.283,407.481c-0.042,0-0.085-0.013-0.119-0.039c-0.059-0.043-0.09-0.113-0.082-0.186
				c0.016-0.153,0.412-3.658,2.331-3.658c0.054,0,0.111,0.003,0.167,0.009c0.555,0.056,0.715,0.337,0.751,0.563
				c0.155,0.968-1.919,2.827-2.965,3.293C188.339,407.475,188.311,407.481,188.283,407.481z M190.419,404.005
				c-1.236,0-1.724,2.036-1.876,2.907c1.068-0.638,2.479-2.097,2.386-2.678c-0.008-0.046-0.03-0.187-0.391-0.224
				C190.497,404.007,190.458,404.005,190.419,404.005z"/>
			<path style="fill:#263238;" d="M187.749,406.285h-9.635c-0.351,0-0.641,0.243-0.699,0.586l-1.294,7.623
				c-0.134,0.791,0.527,1.539,1.336,1.525c3.361-0.058,4.984-0.255,9.221-0.255c2.607,0,7.991,0.271,11.591,0.271
				c3.521,0,3.883-3.559,2.392-3.882c-6.684-1.445-9.278-3.439-11.493-5.341C188.769,406.469,188.261,406.285,187.749,406.285z"/>
			<g>
				<polygon style="opacity:0.2;" points="189.757,387.827 188.344,398.767 179.87,397.348 181.182,387.195 				"/>
				<polygon style="opacity:0.2;" points="131.694,357.487 137.514,363.946 130.787,368.592 124.758,362.277 				"/>
			</g>
			<path style="fill:#407BFF;" d="M174.32,212.729c6.71,0.898,20.944,2.811,34.711,4.663c13.453-48.691,9.482-50.011,9.482-50.011
				s-3.555-1.718-7.999-3.165c-0.17-0.056-0.328-0.102-0.476-0.148c-2.24-0.673-2.711-0.767-5.701-1.451
				c-5.124-0.902-9.889-1.604-15.761-2.111c-0.377-0.033-0.755-0.066-1.12-0.089c-1.064-0.07-2.114-0.12-3.131-0.16
				c-0.686-0.037-1.37-0.042-2.02-0.048c-0.771,0.001-1.52,0-2.224,0.008c-0.4,0.003-0.788,0.009-1.161,0.016
				c-2.831,0.052-4.992,2.547-4.666,5.36C177.211,191.203,176.266,199.625,174.32,212.729z"/>
			<path style="opacity:0.2;" d="M210.034,178.404c0.236,2.257,5.459,6.389,7.262,5.274c0.526-2.704,0.905-4.961,1.17-6.843
				C215.819,176.644,210.688,173.749,210.034,178.404z"/>
			<path style="fill:#407BFF;" d="M204.368,167.038c-0.252-7.967,19.14,0.815,23.588,2.798l-4.923,13.377
				c0,0-6.489-0.226-10.623-2.611C208.104,178.118,204.552,172.837,204.368,167.038z"/>
			<path style="fill:#B55B52;" d="M191.022,135.012c0.641,8.458,0.73,12.047,5.103,16.444c6.579,6.615,16.922,4.273,18.844-4.134
				c1.73-7.567,0.392-20.128-8.015-23.607C198.671,120.287,190.381,126.554,191.022,135.012z"/>
			<path style="fill:#263238;" d="M191.738,126.068c-8.499-2.125-8.764,5.046-8.587,8.764c0.177,3.718-6.067,5.562-6.067,10.269
				c0,6.138,4.631,9.803-6.632,11.659c-9.535,1.572-12.472,13.483,1.63,20.447c15.605,7.706,39.16-3.135,36.295-13.447
				c-4.422-15.915,3.494-15.859,2.604-24.742c-0.648-6.463,5.465-6.784,3.27-12.168
				C211.368,119.784,190.987,113.586,191.738,126.068z"/>
			<path style="fill:#263238;" d="M181.898,137.995c-1.169-6.151-0.529-10.238,1.901-12.149c3.129-2.462,7.943-0.325,8.146-0.232
				l-0.413,0.911c-0.045-0.021-4.471-1.979-7.118,0.109c-2.11,1.663-2.627,5.423-1.534,11.174L181.898,137.995z"/>
			<path style="fill:#263238;" d="M172.287,155.025c-3.115,0-6.208-1.215-6.404-1.293l0.371-0.929
				c0.068,0.028,6.811,2.672,9.925,0.09c1.52-1.261,1.954-3.627,1.288-7.032l0.982-0.191c0.742,3.793,0.192,6.482-1.632,7.994
				C175.582,154.686,173.931,155.025,172.287,155.025z"/>
			<path style="fill:#B55B52;" d="M208.692,138.413c-0.139,1.536,0.398,3.223,1.168,4.477c1.158,1.887,2.732,1.541,3.243-0.063
				c0.461-1.443,0.413-4.164-1.149-5.538C210.414,135.935,208.851,136.656,208.692,138.413z"/>
			<path style="fill:#263238;" d="M199.868,216.16c0,0-13.478,56.968-19.777,89.693c-6.646,34.527-46,62.693-46,62.693l-8.643-8.891
				c0,0,25.344-22.178,31.852-54.415c13.212-65.441,4.268-78.622,17.02-92.508L199.868,216.16z"/>
			<polygon style="fill:#407BFF;" points="134.827,369.828 124.037,358.728 127.074,355.468 139.602,366.503 			"/>
			<path style="opacity:0.2;" d="M192.705,228.543c-10.48,9.097-9.346,41.383-8.25,55.933c4.399-20.686,9.684-43.722,12.782-57.054
				C196.133,226.596,194.632,226.87,192.705,228.543z"/>
			<path style="fill:#263238;" d="M208.515,217.42c0,0,6.064,67.629,2.756,93.427c-3.441,26.833-20.951,85.215-20.951,85.215
				l-12.363-1.596c0,0,10.043-57.852,11.829-84.419c1.946-28.962-6.69-96.038-6.69-96.038L208.515,217.42z"/>
			<polygon style="fill:#407BFF;" points="192.95,396.767 175.328,394.492 175.6,389.288 194.716,391.141 			"/>
			<g>
				<path style="fill:#407BFF;" d="M174.017,210.639l-1.893,2.874c-0.147,0.223,0.113,0.505,0.514,0.559l36.404,4.886
					c0.313,0.042,0.588-0.075,0.629-0.268l0.641-3.042c0.044-0.211-0.208-0.428-0.55-0.474l-35.152-4.718
					C174.351,210.422,174.111,210.496,174.017,210.639z"/>
				<path style="opacity:0.3;" d="M174.017,210.639l-1.893,2.874c-0.147,0.223,0.113,0.505,0.514,0.559l36.404,4.886
					c0.313,0.042,0.588-0.075,0.629-0.268l0.641-3.042c0.044-0.211-0.208-0.428-0.55-0.474l-35.152-4.718
					C174.351,210.422,174.111,210.496,174.017,210.639z"/>
			</g>
			<path style="fill:#263238;" d="M178.324,215.175l-0.941-0.126c-0.187-0.025-0.32-0.14-0.295-0.256l0.867-3.948
				c0.025-0.116,0.199-0.189,0.387-0.164l0.941,0.126c0.188,0.025,0.32,0.14,0.295,0.256l-0.867,3.948
				C178.685,215.126,178.511,215.2,178.324,215.175z"/>
			<path style="fill:#263238;" d="M202.1,218.421l-0.941-0.126c-0.188-0.025-0.32-0.14-0.295-0.256l0.867-3.948
				c0.025-0.116,0.2-0.19,0.387-0.164l0.941,0.126c0.188,0.025,0.32,0.14,0.295,0.256l-0.867,3.948
				C202.462,218.372,202.288,218.446,202.1,218.421z"/>
		</g>
	</g>
</g>
</svg>
